<?xml version="1.0" encoding="utf-8"?>
<!-- Generator: Adobe Illustrator 16.0.0, SVG Export Plug-In . SVG Version: 6.00 Build 0)  -->
<!DOCTYPE svg PUBLIC "-//W3C//DTD SVG 1.1//EN" "http://www.w3.org/Graphics/SVG/1.1/DTD/svg11.dtd">
<svg version="1.1" id="Logo" xmlns="http://www.w3.org/2000/svg" xmlns:xlink="http://www.w3.org/1999/xlink" x="0px" y="0px"
	 width="596px" height="512px" viewBox="0 0 596 512" enable-background="new 0 0 596 512" xml:space="preserve">
<g id="The_Series">
	<g id="The_Series_Shadow">
		<g>
			<path d="M160.355,365.382c0.689-1.536-27.703,5.06-27.806,6.312c-0.6,7.272-1.124,20.982-0.954,38.589
				c-2.237,0.9-4.889,2.265-7.956,4.095c-3.067,1.828-4.931,2.922-5.591,3.283c-0.338-6.148-0.576-11.119-0.714-14.912
				c-0.14-3.79,0.182-12.987,0.565-21.288c0.098-2.113-21.438,6.686-21.438,6.686c-0.833-4.602-0.896-10.144-1.917-9.897
				c-1.318,0.317-6.044,2.441-9.644,3.815c-3.6,1.372-46.539,16.217-46.789,17.335c-0.358,1.602-0.827,23.062-0.793,26.247
				c0.008,0.731,17.799-10.753,19.966-11.232c-0.084,4.533,0.046,10.683,0.154,17.399c0.106,6.716,0.313,13.683,0.621,20.899
				c0.305,7.217,0.744,14.535,1.311,21.956c0.568,7.419,1.787,18.255,1.948,19.448c0.185,1.359,26.019-20.167,25.827-20.666
				c-1.008-2.609-2.981-9.932-4.544-18.984c-1.594-9.254-2.821-18.627-3.675-28.124c-0.854-9.492-1.006-15.938-0.457-19.332
				c0.096-0.038,2.932-1.379,8.51-4.021c1.707-0.809,3.224-1.497,4.592-2.09c1.5,15.423,3.589,30.957,6.289,46.605
				c2.169,12.576,4.261,23.601,7.072,33.645c0.253,0.907,18.971-11.255,18.971-11.255c-1.318-7.649-2.307-13.978-2.962-18.979
				c-0.658-5.002-1.32-11.652-1.989-19.953c4.517-2.984,7.443-4.887,8.777-5.705c1.334-0.818,2.707-1.432,4.122-1.839
				c0.234,6.621,0.557,12.917,0.969,18.89c0.411,5.972,0.886,11.68,1.423,17.126c0.538,5.445,1.975,19.942,2.216,20.825
				c0.165,0.605,23.386-7.93,23.341-8.697c-0.078-1.322-2.319-19.158-3.067-28.815c-0.749-9.656-1.137-19.144-1.166-28.462
				c-0.029-9.317,0.351-18.148,1.138-26.493C157.491,379.447,158.011,370.605,160.355,365.382z"/>
		</g>
		<g>
			<path d="M196.339,437.39c-2.521,1.353-4.416,2.47-5.687,3.35c-0.345-1.034-0.714-2.704-1.11-5.007
				c-0.895-5.188-1.238-11.595-1.026-19.223c0,0,20.911-11.187,21.717-11.479c0.708-0.256-1.663-13.545-2.214-15.706
				c-0.195-0.763-20.97,10.609-20.97,10.609l-0.292-17.831c0,0,21.953-9.164,22.092-10.03c0.229-1.426-1.269-11.935-1.477-13.046
				c-0.267-1.426-11.411,3.89-20.412,7.123c-9.001,3.234-16.594,6.303-22.776,9.204c0.207,8.854,0.468,18.44,0.784,28.76
				c0.316,10.32,0.723,20.599,1.219,30.836c0.498,10.237,1.053,18.034,1.669,23.394c0,0,16.208,12.893,17.3,12.237
				c3.416-2.049,9.747-5.348,18.254-10.125c8.509-4.778,19.63-10.639,19.622-11.351c-0.016-1.289-2.916-23.173-2.95-24.458
				C220.061,423.848,198.858,436.037,196.339,437.39z"/>
		</g>
		<g>
			<path d="M283.946,396.419c-1.515-1.367-3.487-3.059-5.918-5.074c-2.43-2.014-4.265-3.594-5.504-4.742
				c-1.241-1.148-2.291-2.395-3.151-3.743c-0.862-1.345-1.428-2.81-1.701-4.391c-0.267-1.542-0.176-3.714,0.269-6.514
				c0.71-3.422,2.115-5.314,4.218-5.678c2.103-0.363,4.429,0.453,6.98,2.447c2.55,1.992,4.463,3.695,5.738,5.105
				c0,0-1.618-19.786-2.018-23.35c-0.134-1.192-7.127-4.855-15.223-3.067c-3.037,0.67-6.095,1.556-9.09,3.085
				c-3.699,1.875-6.684,4.294-8.957,7.255c-2.273,2.96-3.781,6.27-4.522,9.925c-0.741,3.656-0.778,7.418-0.11,11.284
				c0.714,4.149,2.286,8.354,4.714,12.62c1.423,2.395,2.917,4.444,4.477,6.144c1.563,1.702,3.861,4.05,6.893,7.045
				c3.033,2.994,5.262,5.391,6.686,7.188s2.288,3.577,2.591,5.34c0.532,3.085-0.929,6.092-4.384,9.021
				c-1.058,0.924-2.357,1.52-3.9,1.787c-2.984,0.512-5.996-0.153-9.038-2c-3.041-1.846-6.879-6.004-6.703-4.785
				c0.261,1.814,1.628,7.824,2.966,13.788c1.338,5.96,2.865,11.899,3.925,15.042c0.254,0.758,8.97,3.211,11.126,3.519
				c2.157,0.307,4.997,0.149,7.381-0.262c5.467-0.944,10.738-3.916,16.955-9.135c3.055-2.61,5.194-6.319,6.418-11.131
				c1.222-4.809,1.377-9.858,0.464-15.146c-0.714-4.145-2.039-8.083-3.97-11.813C289.623,402.453,287.087,399.198,283.946,396.419z"
				/>
		</g>
		<g>
			<path d="M340.067,407.28c-5.586,2.944-9.64,5.093-12.16,6.444c-2.52,1.353-4.415,2.469-5.687,3.35
				c-0.344-1.035-0.715-2.703-1.111-5.008c-0.894-5.186-1.236-11.592-1.026-19.221l21.718-11.48l-2.215-15.704l-20.969,10.608
				l-0.292-17.832l22.092-10.028c0,0-1.177-10.913-1.477-13.048c-0.206-1.443-11.412,3.892-20.412,7.125
				c-9.002,3.233-22.79,7.864-22.776,9.203c0.082,7.659,0.47,18.44,0.785,28.759c0.314,10.321,0.723,20.6,1.219,30.836
				c0.498,10.237,1.053,18.035,1.668,23.394c0,0,16.394,12.838,17.3,12.239c3.066-2.027,9.748-5.349,18.255-10.126
				c8.508-4.778,15.049-8.562,19.621-11.352l-2.95-24.457C349.515,402.238,345.655,404.338,340.067,407.28z"/>
		</g>
		<g>
			<path d="M393.308,386.188c5.089-5.89,8.594-12.42,10.513-19.587c1.918-7.169,2.341-13.866,1.266-20.096
				c-1.385-8.031-4.497-13.104-9.338-15.219c-5.548-2.509-11.746-3.172-18.596-1.992c-7.451,1.287-16.724,5.042-27.819,11.266
				c0.169,6.593,0.563,14.269,1.188,23.03c0.624,8.76,1.458,18.789,2.499,30.086c1.04,11.301,1.891,20.228,2.548,26.787
				c0.657,6.559,0.304,20.434,1.917,19.547c2.872-1.58,7.209-4.072,10.138-5.422c2.849-1.312,9.7-4.665,9.639-5.477
				c-0.118-1.564-0.646-6.912-0.998-12.421c-0.351-5.507-0.722-10.113-1.115-13.821c0.926,1.184,3.034,3.449,6.323,6.798
				c3.291,3.353,6.496,6.573,9.618,9.664c3.121,3.093,6.832,7.998,7.423,7.258c1.411-1.76,3.438-4.644,5.814-8.086
				c2.377-3.442,4.481-6.393,6.315-8.854s3.871-4.916,6.108-7.365C404.611,394.333,396.797,388.968,393.308,386.188z
				 M383.134,360.934c-0.359,4.002-1.227,7.854-2.601,11.554c-1.371,3.703-3.482,8.058-6.331,13.066
				c-0.153-1.975-0.277-4.959-0.367-8.955c-0.091-3.996-0.174-8.447-0.248-13.354c-0.072-4.904-0.138-8.064-0.196-9.479
				c0.949-0.595,2.023-0.999,3.226-1.206c1.604-0.275,2.99-0.004,4.164,0.814c1.171,0.818,1.919,2.17,2.245,4.052
				C383.229,358.607,383.266,359.776,383.134,360.934z"/>
		</g>
		<g>
			<path d="M407.292,333.47c-0.081,2.161,0.1,5.027,0.541,8.602s1.101,8.085,1.98,13.534c0.876,5.448,1.602,10.082,2.181,13.9
				c0.575,3.819,0.947,6.932,1.116,9.336c0.249,3.483,0.856,8.021,1.819,13.607c0.498,2.886,1.107,6.088,1.829,9.614
				c0.722,3.527,1.548,7.394,2.48,11.593c0.93,4.202,1.567,8.154,2.515,11.71c0.153,0.581,18.143-6.423,19.207-6.841
				c0.322-0.126-1.978-11.436-2.667-16.804c-0.688-5.365-1.301-10.798-1.837-16.295c-0.534-5.497-0.906-9.98-1.113-13.451
				c-1.628-24.861,0.806-46.688,0.272-52.765C435.543,318.375,407.292,333.47,407.292,333.47z"/>
		</g>
		<g>
			<path d="M543.317,362.755c-1.932-3.728-4.468-6.982-7.608-9.763c-1.515-1.368-3.487-3.06-5.918-5.073
				c-2.431-2.013-4.267-3.596-5.504-4.742c-1.241-1.149-2.29-2.395-3.151-3.742c-0.863-1.347-1.429-2.81-1.702-4.393
				c-0.267-1.543-0.177-3.714,0.27-6.512c0.709-3.424,2.114-5.315,4.217-5.68c2.104-0.361,4.43,0.454,6.98,2.447
				c2.552,1.993,5.375,5.396,5.739,5.105c0.533-0.427-1.838-18.83-2.019-23.351c-0.048-1.198-7.836-4.812-15.223-3.065
				c-3.026,0.715-6.095,1.557-9.091,3.084c-3.696,1.877-6.684,4.293-8.956,7.255c-2.274,2.961-3.781,6.271-4.524,9.925
				c-0.74,3.657-0.775,7.419-0.108,11.285c0.715,4.148,2.286,8.354,4.713,12.619c1.425,2.396,2.914,4.444,4.479,6.145
				c1.562,1.701,3.859,4.049,6.892,7.044c3.033,2.995,5.261,5.391,6.686,7.188c1.424,1.797,2.288,3.577,2.591,5.341
				c0.532,3.087-0.929,6.092-4.384,9.019c-1.058,0.926-2.356,1.521-3.9,1.787c-2.984,0.517-5.996-0.152-9.037-1.999
				c-2.018-1.227-3.674-2.338-4.981-3.342l-0.463-3.824c-2.134,1.254-5.994,3.354-11.583,6.298
				c-5.586,2.944-9.64,5.092-12.159,6.445c-2.521,1.351-4.414,2.469-5.688,3.348c-0.344-1.035-0.714-2.703-1.111-5.008
				c-0.894-5.186-1.235-11.593-1.024-19.22l21.717-11.481l-2.214-15.703l-20.972,10.607l-0.292-17.831l22.092-10.028
				c0,0-1.215-10.819-1.477-13.049c-0.125-1.074-11.41,3.891-20.41,7.125c-9.003,3.233-16.594,6.302-22.776,9.204
				c0.207,8.854,0.468,18.44,0.784,28.759c0.315,10.32,0.722,20.598,1.22,30.836c0.496,10.236,1.054,18.035,1.668,23.393
				c0,0,15.407,12.933,17.302,12.239c1.926-0.705,9.746-5.349,18.254-10.126c8.509-4.777,12.891-7.259,17.463-10.048l-0.225-19.22
				c1.158,4.977,4.5,21.344,5.613,24.885c1.283,0.5,2.369,0.92,4.357,1.69c1.988,0.769,4.062,1.307,6.219,1.615
				c2.156,0.308,4.426,0.256,6.811-0.156c5.465-0.941,11.31-4.022,17.524-9.24c3.057-2.61,5.195-6.319,6.417-11.131
				c1.225-4.81,1.378-9.857,0.468-15.147C546.574,370.423,545.249,366.486,543.317,362.755z"/>
		</g>
	</g>
	<g>
		<linearGradient id="SVGID_1_" gradientUnits="userSpaceOnUse" x1="113.7573" y1="443.7764" x2="113.7573" y2="234.4285">
			<stop  offset="0" style="stop-color:#ED9822"/>
			<stop  offset="0.0604" style="stop-color:#EEA123"/>
			<stop  offset="0.239" style="stop-color:#F3BA28"/>
			<stop  offset="0.4214" style="stop-color:#F7CD2D"/>
			<stop  offset="0.6068" style="stop-color:#FADB31"/>
			<stop  offset="0.7972" style="stop-color:#FCE334"/>
			<stop  offset="1" style="stop-color:#FCE635"/>
		</linearGradient>
		<path fill="url(#SVGID_1_)" d="M76.319,488.52c-1.817,0-3.312-1.3-3.556-3.09c-0.167-1.236-1.392-12.12-1.969-19.653
			c-0.57-7.46-1.014-14.887-1.318-22.075c-0.307-7.196-0.517-14.26-0.624-20.992l-0.05-3.075c-0.05-3.002-0.099-5.912-0.12-8.571
			c-1.931,1.131-4.122,2.449-5.88,3.507c-8.767,5.274-9.205,5.451-10.52,5.451h-3.458l-0.092-3.491
			c-0.02-1.866,0.367-24.766,0.877-27.053c0.578-2.588,0.612-2.742,40.833-16.949c4.081-1.441,7.304-2.579,8.124-2.893
			c1.458-0.556,3.096-1.235,4.681-1.893c2.782-1.153,4.405-1.817,5.39-2.055l0.404-0.098l0.48-0.008
			c3.738,0,4.166,3.751,4.662,8.095c0.015,0.131,0.03,0.264,0.045,0.397c6.15-2.413,14.854-5.601,17.923-5.601
			c1.613,0,2.592,0.67,3.128,1.231c0.711,0.745,1.076,1.724,1.028,2.758c-0.473,10.226-0.679,17.879-0.564,21
			c0.093,2.529,0.229,5.58,0.408,9.111c0.197-0.117,0.4-0.238,0.608-0.362c2.268-1.353,4.354-2.479,6.229-3.364
			c-0.137-21.163,0.713-33.303,0.985-36.601c0.265-3.213,3.505-4.129,14.705-6.809c2.057-0.492,12.49-2.947,15.938-2.947
			c1.639,0,2.847,0.582,3.589,1.729c0.665,1.027,0.761,2.312,0.257,3.435c-1.806,4.024-2.448,11.177-3.068,18.094
			c-0.096,1.074-0.193,2.147-0.293,3.214c-0.773,8.195-1.151,16.994-1.122,26.152c0.028,9.177,0.417,18.665,1.156,28.202
			c0.512,6.607,1.738,17.155,2.47,23.457c0.432,3.714,0.573,4.953,0.601,5.42l0.09,1.511l-1.078,1.171
			c-0.581,0.615-1.303,1.38-12.718,5.612c-11.107,4.117-12.463,4.144-13.024,4.144c-0.003,0-0.007,0-0.011,0
			c-1.65,0-3.045-1.049-3.471-2.608c-0.138-0.505-0.328-1.199-2.323-21.403c-0.542-5.493-1.023-11.29-1.431-17.23
			c-0.301-4.362-0.557-8.946-0.764-13.682c-1.088,0.691-2.909,1.872-5.955,3.878c0.604,7.262,1.209,13.215,1.802,17.716
			c0.638,4.875,1.627,11.213,2.941,18.841l0.391,2.272l-1.933,1.256c-18.265,11.87-19.66,11.87-20.781,11.87
			c-1.637,0-3.031-1.047-3.467-2.604c-2.786-9.958-4.873-20.792-7.15-33.997c-2.406-13.945-4.363-28.05-5.831-41.995
			c-0.034,0.016-5.597,2.652-6.845,3.24c-0.182,2.744-0.131,7.709,0.677,16.687c0.841,9.349,2.065,18.716,3.639,27.841
			c1.6,9.267,3.522,16.154,4.359,18.318l0.665,1.719l-1.07,1.591c-1.051,1.534-10.43,9.251-13.28,11.58
			C78.667,488.52,77.733,488.52,76.319,488.52z"/>
		<path d="M174.617,355.991c0.485,0,0.724,0.072,0.653,0.23c-2.344,5.224-2.864,14.067-3.652,22.411
			c-0.788,8.346-1.167,17.175-1.138,26.492c0.028,9.318,0.418,18.807,1.166,28.462c0.748,9.658,2.989,27.494,3.067,28.814
			c0.043,0.742-21.619,8.729-23.246,8.729c-0.058,0-0.09-0.01-0.096-0.03c-0.242-0.884-1.679-15.381-2.216-20.825
			c-0.537-5.446-1.012-11.153-1.422-17.127c-0.412-5.973-0.734-12.268-0.969-18.889c-1.415,0.408-2.788,1.021-4.123,1.839
			c-1.333,0.819-4.259,2.721-8.776,5.706c0.668,8.299,1.331,14.951,1.989,19.952c0.655,5.002,1.645,11.328,2.962,18.979
			c0,0-17.395,11.304-18.874,11.304c-0.055,0-0.088-0.016-0.097-0.048c-2.81-10.045-4.902-21.07-7.071-33.646
			c-2.699-15.647-4.789-31.181-6.289-46.604c-1.369,0.593-2.886,1.279-4.592,2.089c-5.577,2.644-8.414,3.983-8.51,4.02
			c-0.549,3.396-0.397,9.841,0.457,19.335c0.854,9.495,2.08,18.868,3.675,28.122c1.563,9.054,3.535,16.376,4.543,18.985
			c0.188,0.483-24.089,20.728-25.739,20.728c-0.052,0-0.082-0.021-0.087-0.062c-0.162-1.192-1.379-12.028-1.948-19.449
			c-0.567-7.42-1.005-14.737-1.311-21.955c-0.308-7.218-0.514-14.184-0.621-20.9c-0.106-6.716-0.238-12.865-0.153-17.397
			c-2.1,0.463-18.876,11.265-19.916,11.265c-0.033,0-0.05-0.011-0.051-0.033c-0.034-3.186,0.436-24.645,0.793-26.248
			c0.25-1.118,43.189-15.961,46.789-17.334c3.599-1.374,8.326-3.498,9.644-3.815c0.022-0.005,0.043-0.008,0.064-0.008
			c0.96,0,1.037,5.403,1.853,9.905c0,0,17.168-7.015,20.777-7.014c0.433,0,0.671,0.101,0.661,0.327
			c-0.384,8.303-0.705,17.498-0.566,21.29c0.139,3.792,0.376,8.762,0.715,14.911c0.659-0.36,2.522-1.455,5.59-3.283
			c3.067-1.83,5.719-3.194,7.956-4.095c-0.169-17.605,0.355-31.316,0.955-38.589C147.555,361.412,170.401,355.991,174.617,355.991
			 M174.617,348.991c-3.643,0-12.929,2.128-16.752,3.043c-3.371,0.807-6.469,1.624-8.724,2.3c-3.473,1.042-8.23,2.469-8.654,7.627
			c-0.265,3.218-1.075,14.758-1.007,34.719c-0.033,0.018-0.066,0.035-0.1,0.052c-0.053-1.22-0.099-2.353-0.137-3.396
			c-0.109-2.984,0.101-10.727,0.563-20.711c0.091-1.969-0.635-3.913-1.993-5.335c-1.008-1.057-2.808-2.315-5.659-2.315
			c0,0-0.001,0-0.001,0c-2.479,0-7.527,1.423-15.052,4.241c-0.003-0.016-0.006-0.03-0.009-0.046
			c-1.31-6.575-6.124-7.087-7.567-7.087c-0.574,0-1.147,0.068-1.706,0.202c-1.245,0.301-2.797,0.935-5.911,2.226
			c-1.562,0.647-3.177,1.316-4.589,1.855c-0.777,0.297-4.143,1.485-8.039,2.861c-6.911,2.441-16.376,5.785-24.35,8.699
			c-4.466,1.633-7.825,2.896-10.268,3.864c-4.572,1.811-7.593,3.007-8.467,6.925c-0.655,2.935-0.971,26.915-0.961,27.847
			c0.045,3.841,3.208,6.959,7.05,6.959c2.432,0,3.368-0.563,12.325-5.952c0.209-0.126,0.428-0.258,0.654-0.394
			c0.013,0.829,0.027,1.669,0.042,2.517l0.05,3.073c0.107,6.765,0.318,13.859,0.626,21.087c0.306,7.225,0.751,14.691,1.325,22.191
			c0.582,7.601,1.821,18.605,1.991,19.855c0.474,3.49,3.494,6.121,7.024,6.121c2.665,0,4.528-1.222,8.792-4.455
			c2.92-2.213,6.365-4.992,8.741-6.935c12.536-10.245,13.528-11.693,13.952-12.312c1.328-1.938,1.62-4.39,0.781-6.555
			c-0.663-1.715-2.558-8.294-4.173-17.646c-1.557-9.031-2.769-18.304-3.602-27.559c-0.631-7.021-0.782-11.399-0.747-14.115
			c0.155-0.073,0.316-0.15,0.483-0.229c1.404,12.419,3.189,24.932,5.327,37.322c2.295,13.31,4.403,24.244,7.228,34.342
			c0.852,3.041,3.664,5.162,6.838,5.162c2.216,0,3.554,0,22.688-12.435l1.072-0.696c0.641,6.026,0.769,6.495,0.917,7.039
			c0.833,3.051,3.649,5.184,6.848,5.184c1.106,0,2.482,0,14.251-4.362c12.183-4.517,12.965-5.345,14.047-6.491
			c1.343-1.423,2.048-3.347,1.937-5.28c-0.033-0.561-0.147-1.565-0.619-5.627c-0.729-6.277-1.951-16.783-2.458-23.324
			c-0.732-9.451-1.118-18.853-1.145-27.942c-0.028-9.045,0.344-17.729,1.107-25.813c0.101-1.07,0.198-2.149,0.294-3.229
			c0.567-6.32,1.209-13.484,2.775-16.973c0.992-2.212,0.801-4.742-0.512-6.771C180.339,351.075,178.422,348.991,174.617,348.991
			L174.617,348.991z"/>
	</g>
	<g>
		<linearGradient id="SVGID_2_" gradientUnits="userSpaceOnUse" x1="208.4956" y1="443.833" x2="208.4956" y2="234.0949">
			<stop  offset="0" style="stop-color:#ED9822"/>
			<stop  offset="0.0604" style="stop-color:#EEA123"/>
			<stop  offset="0.239" style="stop-color:#F3BA28"/>
			<stop  offset="0.4214" style="stop-color:#F7CD2D"/>
			<stop  offset="0.6068" style="stop-color:#FADB31"/>
			<stop  offset="0.7972" style="stop-color:#FCE334"/>
			<stop  offset="1" style="stop-color:#FCE635"/>
		</linearGradient>
		<path fill="url(#SVGID_2_)" d="M199.959,464.946c-1.266-0.001-3-0.003-19.367-13.021l-1.133-0.901l-0.165-1.438
			c-0.621-5.4-1.189-13.349-1.688-23.624c-0.495-10.211-0.906-20.606-1.221-30.898c-0.319-10.417-0.583-20.102-0.786-28.785
			l-0.053-2.281l2.065-0.969c6.249-2.934,14.014-6.072,23.08-9.33c3.015-1.083,6.376-2.445,9.342-3.647
			c7.017-2.845,9.848-3.92,11.754-3.92c2.322,0,3.652,1.556,3.939,3.097c0.02,0.106,1.874,11.863,1.492,14.243
			c-0.358,2.236-0.442,2.758-22.008,11.789l0.158,9.681c15.394-8.311,16.588-8.311,17.482-8.311h2.718l0.755,2.671
			c0.336,1.314,1.105,5.467,1.646,8.887c1.052,6.651,1.54,9.736-1.5,10.927c-1.286,0.608-11.977,6.295-19.584,10.359
			c-0.095,6.484,0.247,12.029,1.02,16.505c0.005,0.029,0.01,0.058,0.015,0.086c0.526-0.293,1.085-0.598,1.679-0.916
			c0.558-0.3,2.05-1.142,4.026-2.256c19.403-10.941,19.96-10.941,21.307-10.941h3.408l0.156,3.444
			c0.046,0.716,0.786,6.573,1.38,11.279c1.19,9.429,1.562,12.484,1.571,13.229c0.033,2.621-0.508,2.918-14.356,10.539
			c-2.363,1.301-4.799,2.642-7.051,3.905c-3.943,2.215-7.347,4.073-10.35,5.712c-3.374,1.842-6.039,3.297-7.818,4.364
			c-0.57,0.342-1.23,0.522-1.909,0.522C199.961,464.946,199.96,464.946,199.959,464.946z"/>
		<path d="M221.787,349.63c0.295,0,0.468,0.075,0.499,0.238c0.208,1.111,1.706,11.62,1.477,13.047
			c-0.139,0.866-22.091,10.029-22.091,10.029l0.291,17.831c0,0,19.45-10.646,20.888-10.646c0.048,0,0.076,0.013,0.083,0.037
			c0.552,2.16,2.922,15.449,2.214,15.706c-0.806,0.292-21.717,11.479-21.717,11.479c-0.211,7.628,0.131,14.035,1.026,19.222
			c0.396,2.304,0.766,3.973,1.111,5.007c1.271-0.88,3.167-1.997,5.686-3.349c2.44-1.31,22.395-12.781,23.679-12.781
			c0.042,0,0.064,0.013,0.065,0.038c0.035,1.285,2.934,23.17,2.95,24.459c0.009,0.711-11.112,6.572-19.621,11.349
			c-8.508,4.779-14.838,8.077-18.255,10.126c-0.027,0.017-0.063,0.024-0.108,0.024c-1.779,0-17.191-12.261-17.191-12.261
			c-0.616-5.36-1.172-13.156-1.669-23.395c-0.497-10.237-0.903-20.516-1.219-30.836c-0.316-10.319-0.579-19.905-0.785-28.76
			c6.184-2.902,13.775-5.97,22.776-9.204C209.846,354.127,219.499,349.63,221.787,349.63 M221.788,342.63
			C221.787,342.63,221.787,342.63,221.788,342.63c-2.663,0-5.743,1.205-13.071,4.176c-3.079,1.248-6.262,2.539-9.21,3.598
			c-9.169,3.295-17.037,6.477-23.384,9.455l-4.13,1.938l0.106,4.562c0.203,8.695,0.467,18.389,0.787,28.811
			c0.315,10.313,0.727,20.729,1.224,30.961c0.51,10.498,1.068,18.301,1.707,23.855l0.331,2.876l2.266,1.803
			c17.326,13.782,19.189,13.782,21.549,13.782c1.313,0,2.597-0.354,3.711-1.022c1.716-1.029,4.354-2.469,7.693-4.292
			c2.863-1.562,6.425-3.507,10.388-5.732c2.233-1.254,4.669-2.595,7.024-3.891c3.333-1.834,6.481-3.566,8.863-4.945
			c4.112-2.38,7.36-4.259,7.305-8.703c-0.011-0.849-0.169-2.298-1.599-13.625c-0.568-4.498-1.272-10.081-1.359-11.104
			c-0.188-3.761-3.256-6.682-7.056-6.682c-2.336,0-2.822,0-23.025,11.393c-0.407,0.229-0.802,0.451-1.175,0.662
			c-0.24-2.688-0.361-5.669-0.361-8.925c8.109-4.33,16.138-8.588,17.529-9.27c4.974-2.07,4.427-7.56,4.244-9.392
			c-0.134-1.347-0.375-3.123-0.716-5.279c-0.574-3.629-1.341-7.759-1.712-9.207c-0.796-3.12-3.618-5.301-6.86-5.304
			c-0.019,0-0.038,0-0.057,0c-1.54,0-2.787,0.071-14.024,6.016l-0.026-1.588c1.948-0.827,4.336-1.849,6.714-2.885
			c3.26-1.421,5.878-2.597,7.779-3.494c3.8-1.795,6.802-3.212,7.434-7.156c0.51-3.177-1.487-15.326-1.508-15.441
			C228.512,345.079,225.478,342.631,221.788,342.63L221.788,342.63L221.788,342.63z"/>
	</g>
	<g>
		<linearGradient id="SVGID_3_" gradientUnits="userSpaceOnUse" x1="285.2095" y1="443.9707" x2="285.2095" y2="234.5029">
			<stop  offset="0" style="stop-color:#ED9822"/>
			<stop  offset="0.0604" style="stop-color:#EEA123"/>
			<stop  offset="0.239" style="stop-color:#F3BA28"/>
			<stop  offset="0.4214" style="stop-color:#F7CD2D"/>
			<stop  offset="0.6068" style="stop-color:#FADB31"/>
			<stop  offset="0.7972" style="stop-color:#FCE334"/>
			<stop  offset="1" style="stop-color:#FCE635"/>
		</linearGradient>
		<path fill="url(#SVGID_3_)" d="M281.759,448.17c-1.097,0-2.116-0.065-3.026-0.193c-1.481-0.212-4.56-1.033-6.796-1.706
			c-4.885-1.472-6.51-2.237-7.158-4.164c-1.048-3.108-2.589-9.007-4.021-15.391l-0.402-1.791c-1.267-5.633-2.36-10.497-2.614-12.266
			c-0.159-1.106,0.141-2.163,0.845-2.976l1.047-1.208l1.684-0.034c1.604,0,2.63,0.874,4.676,2.614
			c1.155,0.983,2.591,2.206,3.733,2.899c1.838,1.116,3.562,1.658,5.27,1.658c0.451,0,0.907-0.039,1.358-0.116
			c0.901-0.156,1.619-0.476,2.189-0.974c3.697-3.133,3.352-5.133,3.238-5.79c-0.202-1.173-0.835-2.437-1.885-3.76
			c-1.329-1.678-3.482-3.989-6.402-6.873c-3.053-3.015-5.412-5.426-7.011-7.166c-1.714-1.867-3.366-4.129-4.908-6.725
			c-2.65-4.654-4.373-9.282-5.155-13.812c-0.737-4.274-0.694-8.505,0.129-12.572c0.846-4.168,2.587-7.991,5.177-11.364
			c2.583-3.363,5.998-6.138,10.15-8.244c2.849-1.453,5.911-2.497,9.92-3.382c1.698-0.375,3.453-0.564,5.216-0.564
			c3.057,0,6.22,0.59,8.905,1.662c4.997,1.995,5.251,4.255,5.334,4.997c0.401,3.577,1.962,22.646,2.028,23.456l0.842,10.291
			l-6.926-7.658c-1.14-1.261-2.922-2.84-5.297-4.694c-1.498-1.171-2.826-1.79-3.84-1.79c-0.134,0-0.265,0.012-0.392,0.033
			c-0.382,0.065-0.97,0.99-1.369,2.861c-0.462,2.947-0.399,4.498-0.263,5.282c0.195,1.133,0.587,2.146,1.199,3.102
			c0.699,1.095,1.567,2.123,2.582,3.062c1.179,1.092,2.982,2.645,5.36,4.616c2.433,2.017,4.461,3.755,6.028,5.168
			c3.425,3.032,6.25,6.657,8.373,10.754c2.09,4.033,3.54,8.35,4.312,12.83c0.992,5.75,0.816,11.336-0.521,16.602
			c-1.4,5.504-3.937,9.854-7.538,12.931c-6.963,5.844-12.702,8.897-18.632,9.922C285.428,448.002,283.497,448.17,281.759,448.17z"/>
		<path d="M287.013,337.771c6.046,0,10.652,2.584,10.76,3.55c0.4,3.565,2.018,23.351,2.018,23.351
			c-1.274-1.409-3.188-3.113-5.738-5.105c-2.159-1.688-4.157-2.531-5.995-2.531c-0.333,0-0.663,0.028-0.986,0.084
			c-2.104,0.363-3.509,2.256-4.218,5.678c-0.445,2.799-0.536,4.971-0.269,6.513c0.272,1.581,0.839,3.047,1.701,4.393
			c0.861,1.347,1.91,2.594,3.151,3.742c1.239,1.147,3.075,2.729,5.504,4.742c2.431,2.015,4.404,3.708,5.919,5.073
			c3.14,2.78,5.675,6.034,7.609,9.765c1.932,3.729,3.256,7.668,3.97,11.813c0.912,5.288,0.758,10.337-0.464,15.146
			c-1.224,4.811-3.362,8.52-6.419,11.131c-6.216,5.217-11.487,8.189-16.954,9.134c-1.528,0.264-3.242,0.422-4.844,0.422
			c-0.898,0-1.762-0.05-2.537-0.159c-2.157-0.309-10.872-2.763-11.127-3.521c-1.06-3.144-2.586-9.081-3.924-15.041
			c-1.339-5.963-2.707-11.973-2.967-13.787c-0.022-0.152,0.019-0.221,0.112-0.221c0.656,0,3.93,3.388,6.592,5.005
			c2.38,1.445,4.742,2.167,7.087,2.167c0.651,0,1.302-0.056,1.951-0.167c1.542-0.268,2.842-0.863,3.9-1.788
			c3.456-2.928,4.917-5.935,4.384-9.021c-0.303-1.762-1.167-3.543-2.591-5.339c-1.423-1.797-3.652-4.193-6.685-7.188
			c-3.032-2.994-5.33-5.343-6.893-7.044c-1.56-1.698-3.052-3.748-4.477-6.145c-2.427-4.265-3.999-8.471-4.714-12.619
			c-0.667-3.867-0.629-7.628,0.111-11.283c0.742-3.656,2.249-6.966,4.522-9.927s5.258-5.378,8.958-7.255
			c2.995-1.527,6.053-2.415,9.09-3.085C284.091,337.913,285.591,337.771,287.013,337.771 M287.013,330.771L287.013,330.771
			c-2.016,0-4.025,0.218-5.971,0.647c-4.311,0.95-7.63,2.087-10.762,3.685c-4.609,2.338-8.425,5.445-11.329,9.228
			c-2.917,3.799-4.878,8.104-5.831,12.798c-0.91,4.497-0.96,9.161-0.148,13.864c0.851,4.931,2.711,9.941,5.529,14.893l0.032,0.057
			l0.034,0.057c1.666,2.803,3.462,5.26,5.338,7.303c1.638,1.783,4.037,4.236,7.13,7.291c2.819,2.783,4.876,4.988,6.116,6.554
			c0.895,1.128,1.123,1.85,1.18,2.18c0.032,0.187-0.386,1.116-2.01,2.492l-0.042,0.035l-0.041,0.036
			c-0.067,0.059-0.254,0.12-0.488,0.16c-0.245,0.042-0.502,0.064-0.754,0.064c-1.049,0-2.179-0.376-3.454-1.15
			c-0.902-0.548-2.277-1.718-3.281-2.572c-2.264-1.927-4.052-3.448-6.943-3.449c-2.068,0-4.028,0.894-5.377,2.45
			c-1.359,1.568-1.965,3.671-1.664,5.767c0.26,1.812,1.182,5.945,2.665,12.539l0.401,1.785c1.479,6.592,3.02,12.478,4.121,15.744
			c1.327,3.944,5.098,5.08,9.465,6.396c1.818,0.547,5.402,1.546,7.304,1.818c1.084,0.153,2.267,0.229,3.528,0.229
			c1.959,0,4.045-0.181,6.033-0.523c6.576-1.136,12.825-4.427,20.265-10.67l0.023-0.021l0.023-0.02
			c4.162-3.556,7.075-8.511,8.656-14.728c1.46-5.747,1.654-11.823,0.578-18.062c-0.833-4.834-2.398-9.492-4.652-13.844
			c-2.318-4.474-5.401-8.432-9.163-11.767c-1.6-1.441-3.657-3.204-6.114-5.241c-2.328-1.93-4.082-3.439-5.214-4.488
			c-0.797-0.738-1.473-1.537-2.01-2.377c-0.359-0.561-0.587-1.15-0.7-1.809c-0.03-0.175-0.143-1.032,0.126-3.142
			c0.043,0.032,0.086,0.065,0.13,0.1c2.763,2.158,4.167,3.521,4.857,4.286l13.852,15.316l-1.684-20.582
			c-0.066-0.812-1.631-19.933-2.038-23.561C303.931,333.423,293.438,330.771,287.013,330.771L287.013,330.771L287.013,330.771z"/>
	</g>
	<g>
		<linearGradient id="SVGID_4_" gradientUnits="userSpaceOnUse" x1="340.2129" y1="443.9287" x2="340.2129" y2="234.189">
			<stop  offset="0" style="stop-color:#ED9822"/>
			<stop  offset="0.0604" style="stop-color:#EEA123"/>
			<stop  offset="0.239" style="stop-color:#F3BA28"/>
			<stop  offset="0.4214" style="stop-color:#F7CD2D"/>
			<stop  offset="0.6068" style="stop-color:#FADB31"/>
			<stop  offset="0.7972" style="stop-color:#FCE334"/>
			<stop  offset="1" style="stop-color:#FCE635"/>
		</linearGradient>
		<path fill="url(#SVGID_4_)" d="M331.554,441.278c-1.298,0-2.769,0-19.374-13.003l-1.152-0.902l-0.167-1.454
			c-0.619-5.396-1.187-13.344-1.686-23.623c-0.501-10.3-0.912-20.696-1.222-30.899l-0.212-6.75
			c-0.263-8.252-0.51-16.047-0.574-22.08c-0.037-3.428,2.289-4.454,20.568-10.925c1.578-0.559,3.11-1.101,4.523-1.608
			c3.015-1.083,6.384-2.448,9.356-3.652c7.024-2.846,9.856-3.921,11.75-3.921c2.399,0,3.73,1.685,3.953,3.25
			c0.307,2.169,1.443,12.717,1.491,13.165l0.271,2.516l-22.305,10.127l0.163,9.946l20.343-10.293l3.243,22.98l-22.072,11.667
			c-0.094,6.479,0.248,12.02,1.02,16.494c0.005,0.029,0.01,0.058,0.015,0.086c0.526-0.293,1.085-0.599,1.679-0.917
			c2.525-1.355,6.586-3.507,12.184-6.457c5.52-2.907,9.369-4.999,11.44-6.217l4.609-2.711l3.858,32l-1.922,1.173
			c-4.575,2.791-11.213,6.631-19.728,11.414c-3.609,2.026-6.843,3.767-9.695,5.302c-3.743,2.015-6.7,3.605-8.343,4.691l-0.878,0.581
			L331.554,441.278z"/>
		<path d="M353.365,325.96c0.295,0,0.465,0.076,0.488,0.242c0.301,2.134,1.477,13.048,1.477,13.048l-22.091,10.029l0.292,17.831
			l20.969-10.609l2.216,15.705l-21.719,11.48c-0.21,7.628,0.133,14.035,1.026,19.221c0.396,2.305,0.768,3.972,1.111,5.008
			c1.271-0.88,3.167-1.997,5.687-3.35c2.521-1.353,6.573-3.5,12.16-6.444c5.588-2.943,9.447-5.041,11.583-6.297l2.949,24.457
			c-4.572,2.789-11.112,6.572-19.619,11.351c-8.509,4.778-15.189,8.099-18.255,10.126c-0.021,0.014-0.049,0.021-0.086,0.021
			c-1.562,0-17.216-12.259-17.216-12.259c-0.615-5.359-1.17-13.157-1.667-23.394c-0.498-10.237-0.906-20.516-1.22-30.836
			c-0.315-10.319-0.703-21.101-0.784-28.761c-0.015-1.34,13.773-5.969,22.775-9.202C341.407,330.466,351.099,325.959,353.365,325.96
			 M353.365,318.96c-2.649,0-5.731,1.206-13.064,4.177c-3.086,1.25-6.276,2.543-9.226,3.603c-1.408,0.506-2.935,1.047-4.508,1.604
			c-4.381,1.551-8.911,3.154-12.529,4.581c-5.364,2.115-10.432,4.114-10.371,9.682c0.064,6.067,0.312,13.879,0.575,22.148
			c0.072,2.247,0.144,4.51,0.212,6.75c0.311,10.225,0.723,20.643,1.226,30.962c0.51,10.501,1.067,18.304,1.704,23.853l0.334,2.908
			l2.305,1.805c17.556,13.747,19.052,13.747,21.531,13.747c1.409,0,2.771-0.407,3.938-1.176c1.52-1.005,4.56-2.641,8.079-4.535
			c2.866-1.542,6.114-3.29,9.751-5.332c8.551-4.804,15.225-8.665,19.837-11.479l3.843-2.344l-0.539-4.47l-2.949-24.457
			l-1.279-10.616l-9.218,5.42c-2.025,1.19-5.826,3.256-11.298,6.138c-3.916,2.064-7.029,3.71-9.413,4.979
			c-0.244-2.699-0.367-5.695-0.368-8.971l18.05-9.541l4.347-2.298l-0.687-4.868l-2.216-15.705l-1.366-9.684l-8.726,4.415
			l-10.992,5.562l-0.034-2.062l17.91-8.131l4.608-2.092l-0.542-5.032c-0.122-1.129-1.197-11.091-1.505-13.275
			c-0.517-3.632-3.636-6.264-7.417-6.265h-0.001C353.366,318.96,353.366,318.96,353.365,318.96L353.365,318.96z"/>
	</g>
	<g>
		<linearGradient id="SVGID_5_" gradientUnits="userSpaceOnUse" x1="398.8584" y1="443.9385" x2="398.8584" y2="234.4848">
			<stop  offset="0" style="stop-color:#ED9822"/>
			<stop  offset="0.0604" style="stop-color:#EEA123"/>
			<stop  offset="0.239" style="stop-color:#F3BA28"/>
			<stop  offset="0.4214" style="stop-color:#F7CD2D"/>
			<stop  offset="0.6068" style="stop-color:#FADB31"/>
			<stop  offset="0.7972" style="stop-color:#FCE334"/>
			<stop  offset="1" style="stop-color:#FCE635"/>
		</linearGradient>
		<path fill="url(#SVGID_5_)" d="M372.254,434.392c-3.825,0-4.221-4.358-4.434-6.7c-0.2-2.209-0.303-5.134-0.401-7.963
			c-0.104-2.937-0.209-5.973-0.42-8.076c-0.665-6.627-1.522-15.648-2.55-26.814c-1.04-11.262-1.883-21.409-2.505-30.158
			c-0.626-8.781-1.028-16.584-1.196-23.19l-0.054-2.109l1.841-1.032c11.555-6.48,21.02-10.295,28.936-11.661
			c2.378-0.41,4.724-0.618,6.972-0.618c4.853,0,9.449,0.966,13.661,2.869c5.924,2.588,9.755,8.587,11.346,17.812
			c1.156,6.7,0.708,13.967-1.334,21.596c-1.738,6.489-4.725,12.553-8.896,18.068c4.139,3.007,10.962,7.625,20.363,13.782l3.44,2.254
			l-2.775,3.035c-2.153,2.355-4.133,4.742-5.885,7.094c-1.815,2.438-3.916,5.384-6.241,8.753c-2.534,3.669-4.518,6.482-5.964,8.287
			c-0.704,0.881-1.761,1.386-2.896,1.386h-0.001c-2.149,0-3.525-1.541-6.54-4.917c-1.065-1.192-2.166-2.425-3.18-3.43
			c-2.902-2.871-5.895-5.874-9.128-9.162c0.087,1.223,0.173,2.494,0.257,3.813c0.251,3.924,0.587,7.707,0.809,10.211
			c0.086,0.971,0.152,1.72,0.187,2.167c0.17,2.253-0.271,3.673-11.666,8.921c-2.193,1.011-5.374,2.783-7.93,4.207
			c-0.709,0.395-1.379,0.769-1.984,1.102C373.521,434.228,372.889,434.392,372.254,434.392z M391.874,346.896
			c0.039,1.703,0.082,4.068,0.128,7.137c0.043,2.874,0.088,5.592,0.137,8.152c0.01-0.024,0.019-0.049,0.027-0.073
			c1.259-3.396,2.065-6.979,2.396-10.653c0.101-0.898,0.073-1.747-0.073-2.6c-0.109-0.63-0.337-1.452-0.8-1.775
			c-0.288-0.201-0.585-0.288-0.991-0.288c-0.176,0-0.37,0.018-0.576,0.054C392.038,346.863,391.955,346.88,391.874,346.896z"/>
		<path d="M398.442,319.568c4.374,0,8.447,0.854,12.22,2.559c4.841,2.115,7.953,7.188,9.338,15.218
			c1.075,6.229,0.652,12.929-1.266,20.096c-1.92,7.169-5.425,13.698-10.513,19.588c3.489,2.781,11.304,8.146,23.442,16.096
			c-2.238,2.448-4.275,4.903-6.108,7.364c-1.834,2.463-3.938,5.412-6.315,8.855c-2.377,3.442-4.403,6.326-5.814,8.087
			c-0.04,0.051-0.096,0.074-0.164,0.074c-0.933,0-4.351-4.453-7.258-7.333c-3.123-3.09-6.327-6.312-9.619-9.663
			c-3.29-3.351-5.397-5.616-6.323-6.799c0.394,3.708,0.765,8.314,1.115,13.822c0.353,5.509,0.88,10.855,0.998,12.419
			c0.062,0.812-6.79,4.166-9.64,5.479c-2.928,1.349-7.265,3.84-10.138,5.421c-0.05,0.027-0.098,0.041-0.144,0.041
			c-1.447,0-1.136-13.231-1.772-19.588c-0.658-6.56-1.508-15.487-2.547-26.786c-1.043-11.298-1.876-21.328-2.499-30.086
			c-0.625-8.763-1.021-16.439-1.188-23.031c11.096-6.223,20.368-9.979,27.819-11.265
			C394.259,319.758,396.384,319.568,398.442,319.568 M389.116,376.394c2.848-5.008,4.96-9.362,6.332-13.065
			c1.372-3.7,2.239-7.551,2.601-11.555c0.13-1.156,0.093-2.325-0.11-3.507c-0.325-1.882-1.073-3.233-2.244-4.052
			c-0.878-0.612-1.877-0.919-2.996-0.919c-0.375,0-0.765,0.034-1.167,0.104c-1.202,0.208-2.277,0.611-3.227,1.207
			c0.059,1.414,0.124,4.575,0.197,9.479c0.073,4.906,0.154,9.358,0.246,13.354C388.838,371.435,388.963,374.42,389.116,376.394
			 M398.442,312.568c-2.446,0-4.992,0.226-7.566,0.669c-8.314,1.436-18.146,5.38-30.053,12.058l-3.681,2.064l0.106,4.219
			c0.169,6.66,0.574,14.517,1.204,23.352c0.624,8.771,1.469,18.943,2.511,30.231c1.027,11.172,1.887,20.203,2.553,26.842
			c0.199,1.988,0.304,4.967,0.404,7.848c0.101,2.877,0.204,5.852,0.414,8.157c0.138,1.522,0.312,2.672,0.55,3.619
			c1.158,4.619,4.566,6.265,7.369,6.265c1.224,0,2.441-0.314,3.521-0.91c0.607-0.334,1.283-0.711,1.997-1.108
			c2.504-1.395,5.62-3.131,7.691-4.086c1.635-0.752,4.145-1.966,6.288-3.113c3.469-1.858,7.787-4.171,7.403-9.251
			c-0.035-0.455-0.103-1.22-0.19-2.211c-0.11-1.247-0.25-2.813-0.392-4.556c0.845,0.844,1.68,1.673,2.508,2.492
			c0.935,0.926,1.999,2.117,3.028,3.271c3.273,3.665,5.436,6.086,9.152,6.086c2.203,0,4.255-0.983,5.629-2.7
			c1.509-1.882,3.534-4.753,6.109-8.483c2.303-3.336,4.379-6.247,6.17-8.652c1.682-2.258,3.586-4.553,5.66-6.821l5.552-6.072
			l-6.883-4.507c-7.473-4.895-13.293-8.8-17.405-11.679c3.369-5.072,5.851-10.544,7.402-16.339
			c2.174-8.122,2.646-15.893,1.402-23.097c-1.8-10.436-6.305-17.307-13.39-20.423C408.851,313.633,403.781,312.568,398.442,312.568
			L398.442,312.568z"/>
	</g>
	<g>
		<linearGradient id="SVGID_6_" gradientUnits="userSpaceOnUse" x1="439.0303" y1="444.2158" x2="439.0303" y2="234.3409">
			<stop  offset="0" style="stop-color:#ED9822"/>
			<stop  offset="0.0604" style="stop-color:#EEA123"/>
			<stop  offset="0.239" style="stop-color:#F3BA28"/>
			<stop  offset="0.4214" style="stop-color:#F7CD2D"/>
			<stop  offset="0.6068" style="stop-color:#FADB31"/>
			<stop  offset="0.7972" style="stop-color:#FCE334"/>
			<stop  offset="1" style="stop-color:#FCE635"/>
		</linearGradient>
		<path fill="url(#SVGID_6_)" d="M436.766,419.741c-1.659-0.001-3.058-1.056-3.479-2.625c-0.613-2.305-1.087-4.686-1.589-7.206
			c-0.301-1.511-0.61-3.066-0.962-4.658c-0.929-4.187-1.768-8.105-2.491-11.646c-0.73-3.571-1.353-6.841-1.85-9.719
			c-0.979-5.683-1.605-10.377-1.862-13.955c-0.162-2.313-0.527-5.362-1.085-9.063c-0.576-3.809-1.302-8.43-2.176-13.868
			c-0.883-5.466-1.555-10.062-1.998-13.66c-0.468-3.79-0.653-6.786-0.565-9.159l0.075-2.01l1.773-0.947
			c27.523-14.705,28.901-14.705,29.907-14.705h3.207l0.346,3.228c0.208,2.366,0.027,6.475-0.222,12.161
			c-0.433,9.857-1.087,24.754-0.045,40.681c0.204,3.416,0.564,7.773,1.104,13.343c0.537,5.481,1.151,10.929,1.826,16.188
			c0.31,2.415,0.972,6.158,1.557,9.461c0.344,1.945,0.662,3.743,0.872,5.064c0.365,2.295,0.779,4.896-1.942,5.977
			c-18.094,7.078-19.724,7.121-20.388,7.121C436.773,419.741,436.77,419.741,436.766,419.741z"/>
		<path d="M450.464,310.019c0.042,0,0.064,0.011,0.066,0.033c0.533,6.076-1.899,27.903-0.272,52.765
			c0.207,3.472,0.58,7.954,1.112,13.451c0.538,5.496,1.149,10.93,1.838,16.296c0.688,5.367,2.989,16.676,2.667,16.804
			c-1.021,0.399-17.649,6.874-19.107,6.874c-0.061,0-0.096-0.011-0.102-0.034c-0.945-3.556-1.584-7.508-2.514-11.711
			c-0.932-4.2-1.758-8.063-2.479-11.592c-0.721-3.525-1.331-6.729-1.829-9.613c-0.963-5.588-1.57-10.125-1.82-13.609
			c-0.169-2.403-0.54-5.516-1.115-9.335c-0.578-3.819-1.305-8.451-2.181-13.902c-0.88-5.447-1.54-9.957-1.98-13.532
			c-0.441-3.574-0.621-6.441-0.541-8.602C422.206,324.311,448.956,310.019,450.464,310.019 M450.464,303.019
			c-2.033,0-3.26,0-31.557,15.118l-3.547,1.896l-0.149,4.019c-0.095,2.562,0.098,5.741,0.589,9.72
			c0.448,3.639,1.127,8.279,2.018,13.79c0.867,5.4,1.598,10.057,2.17,13.834c0.543,3.605,0.897,6.561,1.054,8.778
			c0.269,3.754,0.892,8.431,1.904,14.307c0.504,2.915,1.132,6.221,1.869,9.827c0.729,3.56,1.57,7.498,2.504,11.705
			c0.341,1.541,0.648,3.087,0.946,4.582c0.513,2.576,0.998,5.01,1.637,7.412c0.832,3.092,3.653,5.235,6.866,5.235
			c1.339,0,2.856,0,21.657-7.355c0.869-0.345,5.013-2.284,4.408-7.88c-0.052-0.48-0.137-1.088-0.269-1.913
			c-0.217-1.365-0.54-3.19-0.882-5.124c-0.578-3.264-1.232-6.964-1.531-9.296c-0.671-5.224-1.281-10.637-1.814-16.087
			c-0.534-5.52-0.892-9.835-1.092-13.187c-1.032-15.776-0.383-30.558,0.046-40.339c0.266-6.037,0.44-10.025,0.213-12.621
			C457.184,305.78,454.157,303.019,450.464,303.019L450.464,303.019z"/>
	</g>
	<g>
		<linearGradient id="SVGID_7_" gradientUnits="userSpaceOnUse" x1="510.5312" y1="443.9238" x2="510.5312" y2="234.5509">
			<stop  offset="0" style="stop-color:#ED9822"/>
			<stop  offset="0.0604" style="stop-color:#EEA123"/>
			<stop  offset="0.239" style="stop-color:#F3BA28"/>
			<stop  offset="0.4214" style="stop-color:#F7CD2D"/>
			<stop  offset="0.6068" style="stop-color:#FADB31"/>
			<stop  offset="0.7972" style="stop-color:#FCE334"/>
			<stop  offset="1" style="stop-color:#FCE635"/>
		</linearGradient>
		<path fill="url(#SVGID_7_)" d="M479.127,415.814c-1.134,0-3.789,0-19.376-13.085l-1.068-0.896l-0.159-1.386
			c-0.621-5.421-1.188-13.368-1.687-23.622c-0.497-10.252-0.909-20.647-1.222-30.899c-0.32-10.459-0.584-20.144-0.785-28.785
			l-0.053-2.28l2.064-0.97c6.256-2.936,14.021-6.073,23.079-9.327c2.952-1.061,6.109-2.293,9.163-3.485
			c7.582-2.96,10.389-3.995,12.106-3.995c2.248,0,3.614,1.633,3.802,3.245c0.262,2.229,1.479,13.062,1.479,13.062l0.283,2.526
			l-22.315,10.131l0.163,9.946l20.346-10.294l3.238,22.981l-22.069,11.668c-0.095,6.475,0.247,12.015,1.019,16.492
			c0.005,0.029,0.01,0.059,0.015,0.087c0.527-0.293,1.087-0.599,1.68-0.917c2.524-1.354,6.587-3.507,12.183-6.457
			c5.491-2.892,9.341-4.983,11.442-6.219l4.607-2.708l0.921,7.626c0.995,0.7,2.169,1.462,3.507,2.275
			c1.837,1.115,3.56,1.657,5.266,1.657c0.451,0,0.908-0.039,1.359-0.117c0.904-0.155,1.62-0.473,2.191-0.973
			c3.696-3.132,3.351-5.134,3.237-5.791c-0.202-1.174-0.836-2.438-1.884-3.758c-1.336-1.686-3.489-3.997-6.402-6.872
			c-3.115-3.078-5.408-5.423-7.01-7.168c-1.71-1.857-3.362-4.121-4.91-6.724c-2.65-4.655-4.373-9.284-5.153-13.813
			c-0.737-4.28-0.694-8.51,0.127-12.571c0.847-4.169,2.589-7.991,5.179-11.365c2.581-3.362,5.995-6.136,10.148-8.243
			c3.336-1.7,6.715-2.625,9.869-3.37c1.577-0.373,3.251-0.562,4.974-0.562c4.823,0,14.359,2.082,14.552,6.896
			c0.071,1.775,0.537,6.158,0.987,10.397c1.5,14.116,1.528,14.387-0.287,15.83l-0.957,0.761l-1.278,0.018
			c-1.714,0-2.682-0.963-4.611-2.881c-0.969-0.963-2.174-2.161-3.226-2.983c-1.497-1.17-2.824-1.788-3.839-1.788
			c-0.136,0-0.264,0.011-0.393,0.033c-0.382,0.065-0.97,0.989-1.368,2.861c-0.464,2.948-0.4,4.499-0.265,5.282
			c0.197,1.135,0.59,2.148,1.199,3.099c0.7,1.096,1.568,2.126,2.585,3.067c1.19,1.102,2.994,2.654,5.357,4.612
			c2.431,2.014,4.46,3.754,6.03,5.173c3.422,3.028,6.247,6.652,8.37,10.749c2.091,4.036,3.542,8.353,4.314,12.83
			c0.991,5.757,0.815,11.343-0.523,16.604c-1.397,5.501-3.934,9.851-7.536,12.929c-6.693,5.619-13.147,8.986-19.204,10.028
			c-1.548,0.269-3.087,0.404-4.571,0.404c-1.124,0-2.243-0.078-3.326-0.232c-2.415-0.345-4.767-0.955-6.989-1.816
			c-1.992-0.771-5.929-2.305-5.929-2.305l-0.504-1.601c-0.227-0.721-0.527-1.881-0.876-3.332c-4.358,2.642-8.643,5.068-16.923,9.718
			c-2.628,1.476-5.189,2.938-7.531,4.275c-6.326,3.612-9.698,5.522-11.231,6.085C480.071,415.733,479.606,415.814,479.127,415.814z"
			/>
		<path d="M538.48,294.359c5.882,0,11.016,2.562,11.055,3.535c0.181,4.52,2.553,22.924,2.019,23.349
			c-0.015,0.012-0.033,0.018-0.057,0.018c-0.537,0-3.234-3.21-5.683-5.122c-2.157-1.687-4.155-2.53-5.993-2.53
			c-0.334,0-0.663,0.028-0.986,0.084c-2.104,0.362-3.509,2.255-4.218,5.678c-0.445,2.798-0.537,4.97-0.27,6.513
			c0.274,1.582,0.839,3.047,1.702,4.392c0.861,1.348,1.91,2.594,3.151,3.744c1.238,1.146,3.073,2.727,5.504,4.74
			c2.432,2.015,4.402,3.707,5.917,5.075c3.141,2.779,5.676,6.033,7.608,9.762c1.933,3.73,3.258,7.668,3.973,11.814
			c0.911,5.289,0.758,10.337-0.466,15.146c-1.223,4.811-3.361,8.52-6.418,11.131c-6.215,5.217-12.059,8.3-17.524,9.24
			c-1.363,0.236-2.689,0.354-3.978,0.354c-0.965,0-1.91-0.066-2.833-0.197c-2.156-0.308-4.231-0.846-6.219-1.615
			c-1.988-0.77-3.073-1.19-4.357-1.691c-1.113-3.54-4.455-19.907-5.612-24.884l0.225,19.219c-4.572,2.789-8.955,5.271-17.464,10.049
			c-8.508,4.778-16.328,9.42-18.254,10.126c-0.05,0.019-0.108,0.027-0.176,0.027c-2.515,0-17.126-12.266-17.126-12.266
			c-0.614-5.359-1.171-13.156-1.668-23.394c-0.497-10.238-0.904-20.515-1.22-30.836c-0.315-10.319-0.578-19.905-0.784-28.76
			c6.183-2.901,13.773-5.969,22.775-9.202c8.149-2.928,18.169-7.275,20.086-7.274c0.201,0,0.313,0.048,0.325,0.149
			c0.262,2.229,1.477,13.049,1.477,13.049l-22.091,10.028l0.292,17.831l20.971-10.609l2.213,15.705l-21.716,11.481
			c-0.212,7.627,0.131,14.033,1.024,19.219c0.397,2.306,0.767,3.973,1.11,5.008c1.274-0.88,3.168-1.996,5.688-3.349
			c2.52-1.353,6.574-3.5,12.16-6.445c5.587-2.941,9.448-5.042,11.583-6.297l0.462,3.825c1.308,1.004,2.964,2.114,4.981,3.341
			c2.38,1.444,4.74,2.167,7.084,2.167c0.652,0,1.304-0.056,1.954-0.168c1.543-0.265,2.842-0.861,3.9-1.787
			c3.454-2.927,4.915-5.934,4.383-9.021c-0.304-1.761-1.166-3.543-2.592-5.339c-1.424-1.797-3.651-4.193-6.685-7.188
			c-3.032-2.996-5.329-5.343-6.891-7.044c-1.564-1.7-3.055-3.749-4.479-6.146c-2.427-4.264-3.998-8.471-4.713-12.619
			c-0.666-3.866-0.631-7.628,0.108-11.283c0.742-3.656,2.25-6.965,4.524-9.927c2.272-2.961,5.259-5.378,8.956-7.254
			c2.996-1.527,6.064-2.37,9.09-3.085C535.705,294.498,537.113,294.359,538.48,294.359 M538.48,287.359L538.48,287.359
			c-1.993,0-3.938,0.221-5.778,0.655c-3.367,0.796-6.989,1.79-10.659,3.661c-4.612,2.34-8.428,5.447-11.33,9.229
			c-0.659,0.857-1.269,1.741-1.829,2.648c-0.184-1.619-0.34-2.989-0.416-3.637c-0.426-3.665-3.486-6.332-7.275-6.333
			c-0.001,0-0.002,0-0.002,0c-2.408,0-5.319,1.089-13.38,4.235c-3.031,1.184-6.166,2.407-9.073,3.451
			c-9.16,3.291-17.027,6.471-23.382,9.453l-4.131,1.938l0.106,4.562c0.201,8.648,0.466,18.342,0.785,28.811
			c0.314,10.272,0.727,20.689,1.225,30.962c0.502,10.33,1.076,18.354,1.706,23.851l0.317,2.771l2.136,1.793
			c16.563,13.904,19.371,13.904,21.627,13.904c0.892,0,1.761-0.153,2.583-0.454c1.807-0.663,4.912-2.42,11.764-6.332
			c2.335-1.333,4.891-2.792,7.511-4.264c5.865-3.293,9.735-5.477,13.053-7.414l0.7,2.229l3.127,1.22
			c1.289,0.503,2.379,0.926,4.375,1.698c2.47,0.956,5.08,1.635,7.757,2.017c1.248,0.178,2.533,0.268,3.821,0.268
			c1.685,0,3.425-0.153,5.172-0.456c6.669-1.147,13.68-4.773,20.831-10.776l0.022-0.02l0.023-0.02
			c4.163-3.557,7.075-8.513,8.655-14.729c1.46-5.739,1.655-11.816,0.58-18.06c-0.833-4.833-2.399-9.491-4.655-13.846
			c-2.318-4.472-5.399-8.428-9.159-11.761c-1.604-1.448-3.662-3.213-6.116-5.247c-2.315-1.918-4.07-3.428-5.216-4.488
			c-0.805-0.746-1.463-1.524-2.007-2.375c-0.36-0.562-0.588-1.152-0.704-1.818c-0.028-0.167-0.141-1.022,0.13-3.133
			c0.042,0.032,0.085,0.065,0.13,0.1c0.889,0.694,2.012,1.812,2.914,2.709c2.104,2.092,3.922,3.898,7.079,3.898
			c1.599,0,3.167-0.547,4.414-1.539c3.154-2.509,2.867-5.754,2.47-10.246c-0.217-2.442-0.555-5.62-0.881-8.693
			c-0.424-3.987-0.904-8.508-0.971-10.167C556.195,289.244,543.057,287.359,538.48,287.359L538.48,287.359z M487.976,328.285
			l16.186-7.347c0,0.408,0.006,0.817,0.02,1.228l-5.177,2.619l-10.994,5.562L487.976,328.285L487.976,328.285z M489.601,362.467
			l18.048-9.542l4.346-2.298l-0.686-4.867l-0.29-2.059c1.473,2.344,3.035,4.418,4.655,6.18c1.636,1.781,3.967,4.165,7.122,7.283
			c2.814,2.778,4.872,4.982,6.118,6.556c0.894,1.126,1.123,1.85,1.18,2.181c0.032,0.184-0.386,1.114-2.01,2.49l-0.042,0.035
			l-0.041,0.036c-0.067,0.06-0.245,0.118-0.476,0.157c-0.261,0.045-0.519,0.067-0.771,0.067c-1.047,0-2.176-0.376-3.451-1.15
			c-0.735-0.447-1.415-0.875-2.037-1.283l-0.09-0.738l-1.281-10.613l-9.216,5.418c-2.054,1.207-5.854,3.272-11.296,6.137
			c-4.019,2.119-7.097,3.747-9.416,4.98C489.724,368.737,489.602,365.741,489.601,362.467L489.601,362.467z"/>
	</g>
</g>
<g id="Blink">
	<g id="Blink_Shadow">
		<g>
			<path d="M136.007,209.683c-0.78-4.825-2.123-9.126-4.031-12.905c-5.895-10.954-16.541-15.188-31.935-12.701
				c-3.14,0.507-6.569,1.297-10.285,2.369c3.63-3.062,7.448-7.765,11.453-14.11c4.005-6.344,7.197-13.098,9.577-20.261
				c2.38-7.163,3.132-13.444,2.261-18.843c-0.927-4.762-3.352-8.526-7.277-11.291c-3.923-2.765-8.845-4.525-14.763-5.278
				c-5.916-0.753-12.227-0.589-18.928,0.493c-8.314,2.051-17.399,5.64-27.26,10.77c-9.859,5.129-27.647,15.231-27.716,18.152
				c-0.062,2.661,0.511,26.097,0.98,47.849c0.468,21.753,1.053,44.164,1.756,67.233c0.7,23.071,0.816,44.719,2.202,45.383
				c2.637,1.266,11.156,4.84,19.434,8.65c8.277,3.809,16.596,9.935,17.966,9.416c2.617-0.991,18.571-15.29,28.481-24.729
				c9.909-9.44,18.7-18.748,26.374-27.926c7.673-9.177,12.92-16.822,15.746-22.937c3.112-6.516,5.129-13.188,6.05-20.017
				C137.014,222.174,136.983,215.733,136.007,209.683z M54.485,150.178c2.524-2.372,5.109-3.772,7.75-4.199
				c3.753-0.606,7.183,0.5,10.292,3.318c3.106,2.819,4.951,6.028,5.532,9.627c0.433,4.136-1.632,10.206-6.193,18.211
				c-4.562,8.008-9.112,14.263-13.649,18.768L54.485,150.178z M84.653,254.463c-6.359,9.044-12.905,15.958-19.638,20.737
				l-3.915-57.071c4.525-3.126,8.874-5.028,13.048-5.702c4.862-0.785,8.97,0.192,12.32,2.931c3.351,2.741,5.496,7.021,6.436,12.841
				C93.763,236.666,91.011,245.421,84.653,254.463z"/>
		</g>
		<g>
			<path d="M199.709,226.372c-7.374,8.481-12.36,14.522-14.961,18.125c-1.244-7.697-1.756-17.93-1.54-30.695
				c0.216-12.766,1.142-26.374,2.777-40.824c1.633-14.448,3.99-28.445,7.068-41.988c3.077-13.542,10.036-32.039,10.844-33.934
				c0.654-1.532-20.971,5.118-32.408,9.361c-11.437,4.245-27.914,12.045-28.132,13.209c-0.37,1.97-0.972,46.83,0.012,79.068
				c0.984,32.239,7.567,92.352,9.127,92.803c25.232,7.302,41.116,19.917,42.169,18.769c2.279-2.488,11.828-19.632,21.243-30.309
				c9.416-10.678,18.055-19.774,25.917-27.293c-10.004-12.059-27.905-42.514-28.435-43.209
				C212.976,208.911,207.082,217.893,199.709,226.372z"/>
		</g>
		<g>
			<path d="M231.287,109.576c0,1.963,2.793,31.878,4.358,42.293c1.565,10.416,2.857,19.275,3.88,26.575
				c1.023,7.301,1.67,13.249,1.94,17.841c0.407,6.653,1.474,15.323,3.2,26.006c0.891,5.514,1.988,11.644,3.295,18.388
				c1.305,6.745,2.804,14.135,4.495,22.173c1.691,8.038,3.469,16.127,4.561,22.397c0.642,3.685,37.054-11.528,36.797-12.662
				c-0.69-3.047-3.542-21.865-4.747-32.124c-1.206-10.257-2.264-20.637-3.173-31.139c-0.912-10.501-1.529-19.065-1.852-25.693
				c-2.601-47.479-0.607-87.572,1.592-100.694C285.938,81.124,231.287,108.337,231.287,109.576z"/>
		</g>
		<g>
			<path d="M499.936,151.265c6.87-16.828,47.317-76.366,49.222-79.153c2.275-3.332-35.954-26.55-40.077-29.688
				c-2.314-1.762-20.947,45.873-39.809,85.03c-0.482-18.548-0.675-33.733-0.581-45.557c0.095-11.823,1.829-24.672,2.211-29.739
				c0.146-1.942-48.516,21.63-48.516,21.63c1.169-7.475,4.194-16.54,4.13-19.824c-0.038-1.906-50.193,8.91-50.878,13.01
				c-0.779,4.666-1.08,16.859-0.748,24.978c0.327,8.121,1.792,70.773,2.118,84.121c0,0-19.729-47.527-32.38-97.033
				c-0.62-2.43-48.504,31.766-48.504,31.766c0.233,12.145,1.472,28.447,3.716,48.911c2.244,20.464,5.331,46.262,9.261,77.398
				c3.929,31.134,5.724,55.398,6.806,55.63c0.655,0.141,40.304-19.435,40.138-20.452c-0.251-1.535-4.004-17.114-5.735-27.836
				c-1.894-11.72-3.595-24.264-5.108-37.635c-1.511-13.372-2.673-26.101-3.487-38.19l0.643-0.399
				c2.926,5.697,6.419,13.031,10.481,22.001c4.062,8.971,7.776,17.438,11.146,25.401c3.368,7.964,7.058,17.063,11.07,27.3
				c4.012,10.235,8.268,22.434,8.731,23.403c0.94,1.962,36.33-18.434,36.172-19.812c-2.754-23.986-2.249-43.528-2.654-68.061
				c-0.406-24.533,0.11-48.094,1.549-70.686c0.694-10.885,1.649-20.678,2.859-29.403c-0.052,11.344,0.527,25.933,1.739,43.778
				c1.374,20.192,3.298,41.228,5.77,63.108c2.472,21.88,10.081,77.425,11.5,79.599c0.52,0.796,36.73-18.294,38.521-18.777
				c1.171-0.315-4.111-23.991-4.488-26.328c-1.51-9.344-2.613-18.734-3.312-28.169c4.908,5.573,9.582,10.604,14.02,15.093
				c4.439,4.491,8.705,8.703,12.798,12.639c4.094,3.936,10.541,10.037,19.342,18.301c8.802,8.264,16.172,15.703,18.025,17.075
				c1.438,1.064,26.714-34.7,27.653-37.156c0.789-2.066-24.031-21.354-35.911-33.483
				C515.483,171.927,506.341,160.997,499.936,151.265z"/>
		</g>
	</g>
	<g>
		<linearGradient id="SVGID_8_" gradientUnits="userSpaceOnUse" x1="66.7202" y1="288.4893" x2="147.6831" y2="-72.731">
			<stop  offset="0" style="stop-color:#ED9822"/>
			<stop  offset="0.0604" style="stop-color:#EEA123"/>
			<stop  offset="0.239" style="stop-color:#F3BA28"/>
			<stop  offset="0.4214" style="stop-color:#F7CD2D"/>
			<stop  offset="0.6068" style="stop-color:#FADB31"/>
			<stop  offset="0.7972" style="stop-color:#FCE334"/>
			<stop  offset="1" style="stop-color:#FCE635"/>
		</linearGradient>
		<path fill="url(#SVGID_8_)" d="M73.858,320.233c-1.809-0.001-3.615-1.016-8.574-3.949c-3.162-1.871-7.097-4.199-10.925-5.961
			c-4.734-2.179-9.503-4.263-13.334-5.938c-2.922-1.276-5.23-2.285-6.445-2.868c-2.348-1.126-2.711-3.425-3.135-12
			c-0.269-5.426-0.449-12.708-0.658-21.141c-0.126-5.076-0.26-10.487-0.427-15.979c-0.708-23.284-1.309-46.258-1.783-68.283
			c-0.134-6.186-0.275-12.506-0.409-18.458c-0.354-15.782-0.634-28.248-0.586-30.273c0.042-1.767,0.139-5.905,30.02-21.45
			c10.209-5.312,19.781-9.088,28.45-11.226l0.139-0.035l0.141-0.022c4.176-0.675,8.273-1.017,12.177-1.017
			c2.734,0,5.439,0.168,8.038,0.499c6.552,0.834,12.124,2.842,16.561,5.969c4.728,3.329,7.691,7.923,8.807,13.653l0.02,0.111
			c0.972,6.021,0.155,13.016-2.429,20.79c-2.495,7.509-5.887,14.686-10.083,21.333c-1.526,2.417-3.018,4.6-4.487,6.561
			c2.984-0.472,5.85-0.711,8.521-0.711c12.618,0,21.81,5.193,27.322,15.435c2.131,4.219,3.619,8.97,4.465,14.201
			c1.042,6.459,1.076,13.402,0.101,20.638c-0.979,7.259-3.149,14.445-6.452,21.36c-3.008,6.511-8.398,14.382-16.458,24.021
			c-7.839,9.375-16.938,19.011-27.044,28.638c-0.252,0.24-25.392,24.066-30.088,25.844c-0.453,0.171-0.937,0.258-1.439,0.258
			C73.859,320.233,73.859,320.233,73.858,320.233z M82.753,259.64c4.755-4.236,9.458-9.648,14.038-16.161
			c5.9-8.392,8.513-16.531,7.768-24.194c-0.817-4.958-2.592-8.585-5.277-10.781c-2.018-1.649-4.342-2.451-7.106-2.451
			c-0.833,0-1.716,0.075-2.627,0.222c-3.207,0.518-6.622,1.906-10.173,4.132L82.753,259.64z M75.631,177.495
			c2.656-3.458,5.332-7.549,8.001-12.235c5.212-9.149,6.072-13.905,5.856-16.298c-0.481-2.831-1.953-5.331-4.496-7.638
			c-1.947-1.765-3.944-2.623-6.104-2.623c-0.464,0-0.947,0.04-1.434,0.118c-1.568,0.254-3.175,1.023-4.792,2.292L75.631,177.495z"/>
		<path d="M98.508,105.134c2.599,0,5.132,0.157,7.596,0.471c6.008,0.765,11.004,2.551,14.986,5.358
			c3.985,2.807,6.446,6.627,7.388,11.461c0.885,5.481,0.121,11.858-2.295,19.129s-5.656,14.128-9.722,20.568
			c-4.066,6.441-7.941,11.215-11.627,14.324c3.771-1.088,7.253-1.89,10.44-2.405c2.892-0.467,5.618-0.701,8.18-0.701
			c11.281,0,19.362,4.531,24.239,13.594c1.937,3.836,3.3,8.203,4.092,13.101c0.991,6.143,1.021,12.68,0.087,19.612
			c-0.935,6.933-2.982,13.705-6.142,20.319c-2.868,6.207-8.195,13.969-15.984,23.284c-7.79,9.316-16.714,18.766-26.773,28.349
			c-10.061,9.583-26.256,24.099-28.913,25.104c-0.056,0.021-0.123,0.031-0.201,0.031c-1.868,0-9.973-5.879-18.038-9.59
			c-8.403-3.868-17.052-7.497-19.729-8.781c-1.406-0.675-1.524-22.649-2.235-46.07c-0.713-23.419-1.307-46.169-1.782-68.252
			c-0.477-22.082-1.059-45.873-0.995-48.574c0.07-2.965,18.127-13.22,28.136-18.427c10.01-5.208,19.232-8.852,27.673-10.933
			C90.901,105.458,94.773,105.134,98.508,105.134 M72.817,186.044c4.606-4.574,9.226-10.923,13.856-19.052
			c4.63-8.127,6.727-14.289,6.287-18.487c-0.59-3.653-2.463-6.912-5.616-9.773c-2.598-2.354-5.416-3.532-8.457-3.531
			c-0.653,0-1.318,0.054-1.992,0.163c-2.681,0.434-5.305,1.855-7.867,4.263L72.817,186.044 M79.719,266.543
			c6.835-4.852,13.479-11.87,19.936-21.051c6.454-9.18,9.247-18.067,8.377-26.663c-0.954-5.908-3.132-10.253-6.533-13.035
			c-2.644-2.161-5.751-3.242-9.322-3.242c-1.024,0-2.085,0.089-3.185,0.267c-4.238,0.685-8.652,2.615-13.246,5.789L79.719,266.543
			 M98.508,98.134L98.508,98.134c-4.09,0-8.375,0.357-12.735,1.061l-0.282,0.046l-0.278,0.068
			c-8.938,2.204-18.771,6.08-29.227,11.52c-2.374,1.235-10.707,5.629-18.257,10.317c-10.354,6.429-13.542,9.736-13.646,14.155
			c-0.047,2.008,0.18,12.343,0.586,30.438c0.134,5.951,0.275,12.268,0.409,18.451c0.475,22.038,1.075,45.022,1.784,68.314
			c0.166,5.478,0.298,10.805,0.426,15.957c0.209,8.456,0.39,15.759,0.661,21.229c0.41,8.274,0.635,12.832,5.117,14.982
			c1.271,0.61,3.489,1.579,6.559,2.921c3.818,1.668,8.569,3.744,13.271,5.908c3.665,1.687,7.513,3.964,10.605,5.794
			c5.15,3.047,7.5,4.438,10.359,4.438c0.927,0,1.829-0.163,2.678-0.484c1.282-0.485,3.036-1.149,13.823-10.623
			c5.437-4.775,12.12-10.891,17.441-15.96c10.202-9.718,19.392-19.45,27.315-28.927c8.242-9.857,13.786-17.968,16.948-24.794
			c3.45-7.232,5.719-14.757,6.745-22.364c1.022-7.577,0.983-14.865-0.113-21.663c-0.904-5.588-2.503-10.681-4.753-15.14
			l-0.042-0.082l-0.043-0.081c-6.083-11.302-16.596-17.276-30.403-17.276c-0.459,0-0.923,0.007-1.392,0.02
			c0.106-0.166,0.212-0.333,0.318-0.501c4.347-6.886,7.861-14.321,10.446-22.098c2.763-8.315,3.625-15.869,2.562-22.451
			l-0.018-0.112l-0.021-0.111c-1.295-6.647-4.736-11.979-10.229-15.847c-4.906-3.458-11.008-5.672-18.133-6.579
			C104.243,98.311,101.39,98.134,98.508,98.134L98.508,98.134L98.508,98.134z M76.317,142.874c0.59-0.312,1.156-0.512,1.697-0.6
			c0.301-0.049,0.596-0.074,0.874-0.074c0,0,0,0,0,0c0.798,0,2.056,0.179,3.755,1.719c1.889,1.714,2.994,3.511,3.368,5.482
			c0.063,1.189-0.284,5.11-5.42,14.126c-0.759,1.333-1.518,2.614-2.275,3.843L76.317,142.874L76.317,142.874z M83.017,212.323
			c2.495-1.366,4.869-2.235,7.091-2.595c0.727-0.117,1.422-0.177,2.069-0.177c1.951,0,3.505,0.528,4.891,1.661
			c1.986,1.625,3.339,4.492,4.019,8.524c0.624,6.775-1.784,14.084-7.159,21.729c-2.705,3.847-5.445,7.288-8.206,10.308
			L83.017,212.323L83.017,212.323z"/>
	</g>
	<g>
		<linearGradient id="SVGID_9_" gradientUnits="userSpaceOnUse" x1="182.5713" y1="293.3164" x2="262.1909" y2="-61.9109">
			<stop  offset="0" style="stop-color:#ED9822"/>
			<stop  offset="0.0604" style="stop-color:#EEA123"/>
			<stop  offset="0.239" style="stop-color:#F3BA28"/>
			<stop  offset="0.4214" style="stop-color:#F7CD2D"/>
			<stop  offset="0.6068" style="stop-color:#FADB31"/>
			<stop  offset="0.7972" style="stop-color:#FCE334"/>
			<stop  offset="1" style="stop-color:#FCE635"/>
		</linearGradient>
		<path fill="url(#SVGID_9_)" d="M210.097,305.714c-1.608,0-3.168-0.892-7.335-3.275c-6.814-3.896-19.499-11.149-36.224-15.989
			c-2.664-0.771-3.562-1.03-7.36-38.008c-2.33-22.678-3.986-44.905-4.431-59.457c-0.969-31.735-0.467-78.285,0.046-81.019
			c0.321-1.712,0.498-2.655,11.957-8.052c6.311-2.972,13.348-5.959,18.824-7.992c9.208-3.417,29.486-9.95,33.669-9.95
			c1.964,0,2.952,1.052,3.366,1.679c0.67,1.014,0.782,2.293,0.301,3.422c-0.565,1.326-7.674,20.028-10.815,33.851
			c-3.083,13.567-5.475,27.779-7.11,42.242c-1.64,14.487-2.581,28.317-2.798,41.108c-0.145,8.541,0.039,15.987,0.547,22.25
			c2.64-3.218,5.979-7.147,10.063-11.845c3.807-4.379,7.228-8.904,9.725-12.208c3.964-5.246,4.679-6.191,6.755-6.191h1.732
			l1.102,1.402c0.19,0.249,0.311,0.443,1.841,2.971c4.611,7.615,18.645,30.786,26.935,40.78l2.083,2.51l-2.357,2.254
			c-7.876,7.531-16.659,16.781-26.104,27.491c-6.126,6.948-12.437,16.871-16.612,23.438c-2.704,4.251-4.045,6.341-4.998,7.38
			C212.184,305.284,211.189,305.714,210.097,305.714C210.097,305.714,210.097,305.714,210.097,305.714z"/>
		<path d="M219.243,85.472c0.354,0,0.514,0.072,0.448,0.228c-0.821,1.924-7.885,20.701-11.009,34.448
			c-3.124,13.749-5.517,27.957-7.175,42.625c-1.66,14.668-2.6,28.482-2.819,41.442s0.301,23.347,1.563,31.161
			c2.64-3.657,7.702-9.79,15.188-18.399c7.268-8.358,13.12-17.196,13.839-17.196c0.021,0,0.039,0.008,0.051,0.024
			c0.537,0.704,18.71,31.622,28.865,43.863c-7.981,7.632-16.751,16.866-26.31,27.706c-9.558,10.839-19.252,28.242-21.565,30.768
			c-0.046,0.05-0.12,0.074-0.221,0.074c-2.252,0-18.074-12.033-42.586-19.127c-1.583-0.458-8.267-61.481-9.266-94.209
			c-0.999-32.727-0.388-78.267-0.013-80.266c0.222-1.182,16.948-9.1,28.559-13.409C197.239,91.326,216.062,85.471,219.243,85.472
			 M219.244,78.472L219.244,78.472c-5.608-0.001-29.084,8.015-34.888,10.168c-5.564,2.065-12.703,5.096-19.098,8.108
			c-3.004,1.415-5.586,2.707-7.467,3.738c-2.694,1.477-5.748,3.15-6.439,6.836c-0.615,3.274-1.052,50.73-0.104,81.77
			c0.446,14.631,2.109,36.952,4.447,59.708c0.993,9.668,2.025,18.521,2.905,24.93c0.457,3.325,0.867,5.957,1.221,7.823
			c0.526,2.779,1.321,6.98,5.745,8.26c16.321,4.724,28.769,11.841,35.457,15.665c4.623,2.644,6.536,3.737,9.075,3.737
			c2.055,0,4.017-0.855,5.383-2.347c1.152-1.258,2.479-3.32,5.369-7.865c4.117-6.475,10.339-16.258,16.284-23
			c9.379-10.637,18.092-19.813,25.897-27.276l4.714-4.509l-4.165-5.021c-8.125-9.794-22.057-32.798-26.635-40.357
			c-1.604-2.648-1.735-2.865-2.053-3.281c-1.325-1.739-3.425-2.778-5.616-2.778c-3.819,0-5.378,2.064-9.548,7.581
			c-2.467,3.264-5.845,7.734-9.574,12.023c-1.577,1.813-3.044,3.515-4.405,5.107c-0.123-4.027-0.145-8.418-0.064-13.157
			c0.215-12.68,1.149-26.398,2.776-40.773c1.621-14.335,3.991-28.419,7.045-41.86c3.087-13.587,10.066-31.952,10.622-33.253
			c0.944-2.214,0.719-4.728-0.6-6.725C224.884,80.744,222.979,78.472,219.244,78.472L219.244,78.472z"/>
	</g>
	<g>
		<linearGradient id="SVGID_10_" gradientUnits="userSpaceOnUse" x1="251.7007" y1="300.3398" x2="332.705" y2="-61.0657">
			<stop  offset="0" style="stop-color:#ED9822"/>
			<stop  offset="0.0604" style="stop-color:#EEA123"/>
			<stop  offset="0.239" style="stop-color:#F3BA28"/>
			<stop  offset="0.4214" style="stop-color:#F7CD2D"/>
			<stop  offset="0.6068" style="stop-color:#FADB31"/>
			<stop  offset="0.7972" style="stop-color:#FCE334"/>
			<stop  offset="1" style="stop-color:#FCE635"/>
		</linearGradient>
		<path fill="url(#SVGID_10_)" d="M273.978,281.843c-4.017-0.001-4.726-2.901-4.827-3.482c-0.874-5.018-2.179-11.168-3.562-17.68
			l-1.045-4.938c-1.719-8.171-3.259-15.763-4.575-22.564c-1.322-6.825-2.454-13.142-3.364-18.772
			c-1.763-10.913-2.869-19.911-3.287-26.745c-0.268-4.547-0.921-10.547-1.942-17.84c-1.058-7.544-2.381-16.608-3.934-26.942
			c-1.534-10.214-4.463-40.881-4.463-43.455c0-2.584,0-3.122,28.312-17.157c27.177-13.473,29.308-13.473,30.218-13.473
			c1.094,0,2.114,0.464,2.799,1.274l1.049,1.239l-0.256,1.653c-2.232,13.314-4.196,53.591-1.574,101.45
			c0.327,6.69,0.957,15.421,1.873,25.972c0.918,10.6,1.998,21.199,3.21,31.504c1.234,10.507,4.091,29.305,4.757,32.247
			c0.241,1.068-0.021,2.185-0.722,3.061C310.34,270.079,280.723,281.843,273.978,281.843
			C273.978,281.843,273.978,281.843,273.978,281.843z"/>
		<path d="M301.509,72.294c0.102,0,0.15,0.029,0.14,0.088c-2.233,13.321-4.257,54.021-1.616,102.22
			c0.328,6.729,0.954,15.423,1.88,26.083c0.924,10.661,1.997,21.198,3.222,31.61c1.223,10.414,4.118,29.518,4.818,32.61
			c0.232,1.027-29.182,13.438-35.975,13.438c-0.818,0-1.31-0.181-1.379-0.583c-1.108-6.365-2.913-14.577-4.63-22.737
			c-1.717-8.159-3.238-15.661-4.563-22.509c-1.326-6.846-2.44-13.068-3.345-18.666c-1.752-10.846-2.835-19.646-3.248-26.4
			c-0.274-4.662-0.932-10.699-1.97-18.111c-1.039-7.41-2.351-16.404-3.939-26.977c-1.588-10.573-4.424-40.942-4.424-42.935
			C246.479,98.208,298.446,72.294,301.509,72.294 M301.509,65.294c-1.81,0-3.861,0-31.773,13.837
			c-6.937,3.439-13.457,6.76-18.36,9.352c-2.627,1.389-4.7,2.521-6.161,3.366c-2.555,1.478-5.735,3.316-5.735,7.575
			c0,2.622,2.954,33.672,4.501,43.974c1.552,10.325,2.874,19.378,3.93,26.91c1.008,7.199,1.652,13.104,1.914,17.55
			c0.426,6.966,1.544,16.08,3.326,27.105c0.916,5.668,2.054,12.021,3.383,18.881c1.32,6.82,2.863,14.431,4.585,22.619
			c0.347,1.65,0.698,3.304,1.046,4.942c1.375,6.48,2.675,12.601,3.537,17.555c0.553,3.177,3.327,6.382,8.276,6.382
			c1.435,0,5.801,0,22.534-6.563c16.541-6.487,17.998-8.312,18.869-9.401c1.367-1.712,1.878-3.906,1.399-6.019
			c-0.573-2.53-3.426-21.083-4.693-31.881c-1.208-10.271-2.284-20.835-3.2-31.398c-0.912-10.508-1.539-19.194-1.861-25.819
			c-2.859-52.175-0.205-90.385,1.527-100.722c0.345-2.057-0.229-4.146-1.572-5.733C305.628,66.209,303.634,65.294,301.509,65.294
			L301.509,65.294z"/>
	</g>
	<g>
		<linearGradient id="SVGID_11_" gradientUnits="userSpaceOnUse" x1="406.0068" y1="326.4248" x2="493.0282" y2="-61.8257">
			<stop  offset="0" style="stop-color:#ED9822"/>
			<stop  offset="0.0604" style="stop-color:#EEA123"/>
			<stop  offset="0.239" style="stop-color:#F3BA28"/>
			<stop  offset="0.4214" style="stop-color:#F7CD2D"/>
			<stop  offset="0.6068" style="stop-color:#FADB31"/>
			<stop  offset="0.7972" style="stop-color:#FCE334"/>
			<stop  offset="1" style="stop-color:#FCE635"/>
		</linearGradient>
		<path fill="url(#SVGID_11_)" d="M328.973,287.855l-0.371-0.079c-2.85-0.61-3.175-3.15-3.887-8.718
			c-0.469-3.661-1.017-8.788-1.71-15.278c-1.042-9.757-2.339-21.899-4.051-35.461c-3.974-31.486-7.139-57.94-9.408-78.627
			c-2.279-20.784-3.556-37.595-3.792-49.966l-0.036-1.843l1.501-1.072c46.244-33.025,49.73-33.025,51.043-33.025
			c1.745,0,3.2,1.109,3.622,2.76c7.857,30.752,18.519,60.987,25.503,79.566c-0.571-23.9-1.431-59.467-1.672-65.452
			c-0.329-8.06-0.056-20.924,0.805-26.074c0.383-2.292,0.816-4.889,25.625-10.976c10.78-2.646,24.405-5.381,28.546-5.381
			c4.234,0,4.422,3.283,4.429,3.658c0.045,2.233-0.813,5.691-1.899,10.069c-0.312,1.254-0.638,2.569-0.953,3.901
			c26.707-12.845,41.567-19.351,44.203-19.351c1.076,0,2.054,0.415,2.753,1.168l1.039,1.12l-0.093,1.588
			c-0.105,1.401-0.309,3.357-0.543,5.622c-0.646,6.232-1.622,15.65-1.691,24.334c-0.069,8.622,0.016,19.105,0.25,31.291
			c5.954-12.902,11.734-26.071,16.628-37.221c16.018-36.494,16.943-37.717,20.48-37.717c0.825,0,1.607,0.264,2.264,0.764
			c0.892,0.678,4.028,2.707,7.66,5.056c28.756,18.596,33.696,23.085,34.414,26.646c0.229,1.139,0.009,2.273-0.62,3.195
			c-10.616,15.54-41.437,61.864-48.884,78.023c6.3,9.268,15.163,19.751,26.372,31.192c5.314,5.425,13.348,12.393,20.435,18.541
			c16.056,13.926,18.058,15.833,16.79,19.15c-1.021,2.668-13.857,20.418-13.986,20.597c-13.959,19.264-15.251,19.396-17.236,19.396
			c-0.014,0-1.195,0-1.195,0l-1.007-0.711c-1.201-0.889-3.521-3.119-8.237-7.676c-2.915-2.816-6.541-6.321-10.373-9.919
			c-8.876-8.334-15.492-14.594-19.665-18.607c-4.15-3.99-8.543-8.328-13.056-12.892c-2.363-2.391-4.809-4.95-7.317-7.657
			c0.636,6,1.436,11.994,2.393,17.912c0.075,0.465,0.446,2.251,0.875,4.317c0.774,3.729,1.945,9.365,2.782,13.988
			c1.353,7.463,2.041,11.259-1.498,12.318c-1.151,0.468-7.567,3.731-13.239,6.615c-23.709,12.058-25.321,12.633-26.846,12.633
			h-1.895l-1.113-1.611c-2.549-3.904-11.628-77.071-12.222-82.325c-1.951-17.273-3.581-34.198-4.862-50.49
			c-0.414,14.059-0.501,28.484-0.258,43.138c0.087,5.288,0.133,10.348,0.178,15.271c0.168,18.499,0.312,34.475,2.495,53.48
			c0.085,0.749-0.02,1.871-1.005,2.976c-2.184,2.448-15.798,10.169-18.505,11.692c-16.847,9.479-19.387,9.479-20.343,9.479
			c-1.532,0-2.874-0.813-3.501-2.122c-0.231-0.483-0.613-1.517-2.144-5.725c-1.724-4.74-4.329-11.904-6.823-18.269
			c-4.052-10.337-7.82-19.632-11.203-27.627c-3.395-8.021-7.189-16.67-11.28-25.706c-1.155-2.55-2.268-4.975-3.335-7.271
			c0.64,7.234,1.391,14.681,2.249,22.274c1.525,13.473,3.262,26.272,5.163,38.04c1.265,7.83,3.632,18.364,4.903,24.023
			c0.577,2.568,0.836,3.726,0.918,4.228c0.17,1.037-0.134,2.104-0.833,2.927c-0.598,0.702-1.5,1.764-21.672,11.869
			c-20.027,10.033-20.833,10.033-21.687,10.033H328.973z"/>
		<path d="M525.293,30.192c0.054,0,0.102,0.016,0.144,0.048c4.185,3.185,42.994,26.754,40.684,30.137
			c-1.933,2.829-42.993,63.27-49.967,80.352c6.502,9.879,15.783,20.975,27.846,33.287c12.061,12.313,37.257,31.894,36.455,33.991
			c-0.939,2.457-25.866,37.742-27.992,37.742c-0.032,0-0.059-0.008-0.08-0.023c-1.881-1.393-9.363-8.944-18.298-17.334
			c-8.935-8.389-15.479-14.582-19.635-18.578c-4.155-3.996-8.485-8.272-12.992-12.83c-4.505-4.557-9.249-9.665-14.231-15.322
			c0.709,9.578,1.829,19.111,3.362,28.596c0.383,2.372,5.745,26.407,4.557,26.728c-1.78,0.48-37.093,19.086-39.027,19.086
			c-0.04,0-0.066-0.008-0.077-0.024c-1.44-2.207-9.165-58.592-11.675-80.805c-2.509-22.212-4.462-43.566-5.856-64.064
			c-1.23-18.116-1.818-32.926-1.766-44.442c-1.229,8.857-2.198,18.798-2.902,29.849c-1.461,22.934-1.985,46.852-1.573,71.757
			c0.412,24.904-0.101,44.742,2.695,69.092c0.152,1.335-32.552,20.247-36.375,20.247c-0.184,0-0.301-0.044-0.345-0.135
			c-0.472-0.984-4.792-13.367-8.864-23.758c-4.073-10.392-7.818-19.629-11.238-27.714c-3.421-8.083-7.192-16.678-11.315-25.786
			c-4.124-9.106-7.67-16.551-10.64-22.334l-0.652,0.405c0.826,12.273,2.006,25.195,3.54,38.769
			c1.536,13.574,3.264,26.309,5.186,38.205c1.758,10.885,5.567,26.7,5.822,28.258c0.168,1.029-39.797,20.764-40.737,20.764
			c-0.004,0-0.007,0-0.009-0.001c-1.099-0.235-2.92-24.867-6.908-56.474c-3.989-31.607-7.123-57.796-9.401-78.57
			c-2.278-20.773-3.536-37.323-3.772-49.651c0,0,45.332-32.374,49.009-32.373c0.131,0,0.209,0.041,0.23,0.125
			c12.842,50.256,32.87,98.503,32.87,98.503c-0.331-13.55-1.817-77.152-2.15-85.396c-0.337-8.242-0.031-20.62,0.76-25.356
			c0.64-3.831,43.806-13.434,50.719-13.434c0.6,0,0.927,0.072,0.93,0.227c0.066,3.334-3.006,12.536-4.192,20.125
			c0,0,45.568-22.075,49.042-22.074c0.143,0,0.215,0.038,0.209,0.116c-0.388,5.144-2.148,18.188-2.244,30.189
			c-0.096,12.003,0.1,27.418,0.59,46.247C503.827,77.524,522.405,30.192,525.293,30.192 M525.293,23.192
			c-5.547,0-7.923,5.043-12.235,14.197c-3.038,6.446-6.937,15.329-11.45,25.613c-3.09,7.041-6.534,14.887-10.15,22.959
			c-0.052-5.728-0.06-10.935-0.022-15.594c0.067-8.518,1.033-17.836,1.673-24.002c0.247-2.385,0.442-4.269,0.552-5.717
			c0.147-1.963-0.534-3.914-1.869-5.353c-1.369-1.476-3.257-2.289-5.318-2.29c-0.015,0-0.029,0-0.044,0
			c-1.981,0-3.868,0.086-28.742,11.693c-3.551,1.657-7.078,3.321-10.271,4.837c0.809-3.407,1.244-5.728,1.205-7.721
			c-0.07-3.521-2.815-7.086-7.928-7.087c-5.164,0-20.399,3.278-29.381,5.482c-4.58,1.124-11.138,2.835-16.363,4.607
			c-6,2.034-11.034,4.129-11.88,9.191c-0.921,5.513-1.187,18.546-0.85,26.796c0.175,4.323,0.675,24.237,1.154,43.969
			c-5.946-17.014-12.691-37.939-18.098-59.096c-0.811-3.175-3.694-5.393-7.013-5.393c-0.013,0-0.024,0-0.037,0
			c-2.575,0-4.553,0.082-29.808,17.415c-11.711,8.038-23.118,16.181-23.232,16.262l-3.001,2.143l0.071,3.688
			c0.239,12.475,1.522,29.392,3.813,50.28c2.271,20.705,5.438,47.178,9.414,78.684c1.708,13.528,3.003,25.652,4.044,35.395
			c0.695,6.511,1.244,11.652,1.718,15.351c0.267,2.081,0.49,3.561,0.704,4.657c1.175,6.022,4.747,6.787,5.922,7.039l0.725,0.155
			l0.75,0.001c1.86,0,2.487,0,23.255-10.403c20.81-10.425,21.718-11.494,22.771-12.733c1.365-1.606,1.956-3.704,1.62-5.757
			c-0.098-0.596-0.322-1.604-0.958-4.433c-1.263-5.622-3.614-16.088-4.862-23.812c-1.892-11.713-3.621-24.456-5.14-37.876
			c-0.034-0.297-0.067-0.593-0.101-0.889c2.025,4.605,3.953,9.067,5.766,13.351c3.369,7.966,7.127,17.231,11.167,27.54
			c2.479,6.324,5.075,13.464,6.793,18.188c1.652,4.543,1.971,5.403,2.276,6.039c1.216,2.536,3.766,4.11,6.657,4.11
			c1.757,0,4.413,0,22.06-9.928c7.626-4.291,17.183-9.928,19.399-12.413c1.945-2.181,2.007-4.509,1.871-5.702
			c-1.762-15.336-2.184-28.726-2.369-43.109c1.229,9.59,2.702,20.542,4.124,30.599c4.653,32.908,5.43,34.099,6.505,35.746
			c1.311,2.004,3.529,3.198,5.939,3.198c2.354,0,2.845,0,28.432-13.013c5.429-2.761,11.564-5.882,12.918-6.47
			c2.41-0.845,4.819-3.136,4.849-7.268c0.006-0.722-0.052-1.566-0.179-2.657c-0.181-1.538-0.505-3.594-0.992-6.284
			c-0.846-4.666-2.021-10.328-2.8-14.074c-0.382-1.841-0.777-3.744-0.847-4.165c-0.393-2.427-0.758-4.866-1.097-7.314
			c0.026,0.026,0.052,0.052,0.077,0.078c4.533,4.585,8.947,8.943,13.119,12.955c4.186,4.024,10.812,10.295,19.695,18.636
			c3.812,3.58,7.43,7.075,10.336,9.884c4.957,4.789,7.207,6.95,8.588,7.973c1.234,0.914,2.702,1.397,4.245,1.397
			c3.951,0,6.236-2.664,10.626-8.205c3.168-4,6.905-9.08,9.483-12.637c2.206-3.044,13.267-18.381,14.421-21.4
			c1.979-5.178-2.18-9.061-6.202-12.816c-3.002-2.802-7.161-6.409-11.563-10.228c-7.037-6.104-15.013-13.021-20.227-18.345
			c-10.404-10.619-18.744-20.378-24.842-29.066c8.536-17.227,37.528-60.775,47.742-75.727c1.166-1.707,1.578-3.789,1.161-5.86
			c-0.997-4.952-6.085-9.583-35.943-28.893c-3.272-2.117-6.657-4.305-7.442-4.902C528.424,23.718,526.867,23.192,525.293,23.192
			L525.293,23.192z"/>
	</g>
</g>
</svg>
